<?xml version="1.0" standalone="no"?>
<!DOCTYPE svg PUBLIC "-//W3C//DTD SVG 20010904//EN"
 "http://www.w3.org/TR/2001/REC-SVG-20010904/DTD/svg10.dtd">
<svg version="1.0" xmlns="http://www.w3.org/2000/svg"
 width="480.000000pt" height="360.000000pt" viewBox="0 0 480.000000 360.000000"
 preserveAspectRatio="xMidYMid meet">

<g transform="translate(0.000000,360.000000) scale(0.100000,-0.100000)"
fill="#000000" stroke="none">
<path d="M3076 3399 c-207 -27 -449 -97 -606 -176 -139 -70 -299 -181 -530
-368 -414 -336 -687 -590 -773 -723 -56 -85 -103 -196 -123 -290 -35 -169 1
-315 108 -428 87 -93 166 -137 358 -201 98 -32 116 -35 265 -40 111 -4 211 0
325 11 241 24 231 21 228 64 -3 41 -15 35 187 97 66 20 179 65 250 100 119 58
140 65 245 81 194 28 317 9 345 -54 11 -26 13 -25 139 29 196 84 333 181 451
319 303 353 435 751 345 1041 -73 237 -377 457 -729 529 -108 22 -349 26 -485
9z m-42 -557 c3 -4 -45 -14 -106 -20 -320 -36 -519 -99 -893 -282 -222 -109
-396 -209 -647 -371 -93 -59 -168 -104 -168 -99 0 16 219 198 323 268 258 175
670 380 898 446 72 21 175 42 289 59 49 8 299 7 304 -1z m-6 -377 c-2 -3 -141
-58 -309 -123 -508 -199 -974 -398 -1325 -567 -98 -47 -179 -83 -181 -81 -7 7
214 145 328 205 106 56 428 207 614 288 158 69 500 185 720 243 149 40 161 43
153 35z m127 -381 c-122 -102 -356 -251 -506 -321 -208 -99 -584 -232 -804
-287 -111 -27 -295 -60 -301 -53 -3 2 40 19 93 37 300 101 748 267 973 362
117 49 266 124 430 217 131 74 165 87 115 45z m271 -230 c-32 -48 -88 -103
-154 -153 -70 -51 -260 -157 -268 -149 -2 3 28 27 68 53 112 74 247 176 308
232 59 54 73 60 46 17z"/>
<path d="M1428 2640 c-35 -27 -66 -98 -74 -166 l-7 -57 107 88 c104 87 106 89
89 109 -44 51 -75 58 -115 26z"/>
<path d="M825 1477 c-164 -84 -225 -121 -225 -138 0 -15 29 -11 205 32 94 23
187 46 207 51 l37 8 -29 61 c-16 33 -30 62 -32 64 -2 2 -75 -33 -163 -78z"/>
<path d="M3000 1485 c-95 -17 -136 -32 -235 -89 -78 -45 -193 -88 -329 -122
-65 -16 -75 -25 -56 -54 8 -13 64 -15 407 -14 219 0 416 5 437 10 l40 10 27
109 c16 61 26 116 24 123 -14 41 -163 53 -315 27z m300 -59 c0 -20 -30 -25
-180 -31 -74 -3 -170 -7 -212 -10 -43 -2 -78 -1 -78 4 0 4 55 16 123 25 67 10
127 20 132 21 6 2 56 4 113 4 80 1 102 -2 102 -13z m-70 -111 c7 -9 10 -19 6
-23 -4 -4 -116 -8 -249 -9 -178 -2 -233 0 -208 8 117 36 428 52 451 24z"/>
<path d="M1910 720 l0 -150 25 0 c24 0 25 2 25 63 0 73 15 101 51 95 23 -3 24
-7 27 -80 3 -75 4 -78 27 -78 25 0 25 1 25 85 0 72 -3 88 -20 105 -24 24 -57
26 -88 4 l-22 -15 0 60 c0 58 -1 61 -25 61 l-25 0 0 -150z"/>
<path d="M3587 864 c-4 -4 -7 -71 -7 -150 0 -148 3 -157 43 -146 16 4 17 18
15 151 -3 138 -4 146 -23 149 -12 2 -24 0 -28 -4z"/>
<path d="M3697 854 c-12 -13 -8 -42 8 -48 25 -9 46 5 43 28 -3 21 -37 34 -51
20z"/>
<path d="M1026 719 c-25 -72 -46 -135 -46 -140 0 -5 11 -9 24 -9 18 0 27 8 35
30 9 28 13 30 63 30 50 0 54 -2 65 -30 9 -23 18 -30 37 -30 14 0 26 4 26 9 0
5 -21 68 -46 140 l-46 131 -33 0 -33 0 -46 -131z m113 -36 c1 -9 -13 -13 -39
-13 -22 0 -40 1 -40 3 0 1 9 27 20 57 11 30 20 57 21 60 1 8 37 -94 38 -107z"/>
<path d="M2449 840 c-5 -33 -2 -35 53 -40 l58 -5 -60 -95 c-82 -130 -82 -130
35 -130 88 0 95 1 95 20 0 18 -7 20 -60 20 -33 0 -60 2 -60 4 0 3 25 44 55 93
37 58 55 97 53 113 -3 24 -6 25 -85 28 -52 2 -84 -1 -84 -8z"/>
<path d="M1277 773 c-4 -3 -7 -69 -7 -145 l0 -138 25 0 c23 0 25 4 25 46 0 40
2 45 18 39 39 -16 53 -17 77 -1 52 34 58 147 8 186 -31 24 -45 25 -83 5 -25
-13 -29 -13 -34 0 -6 16 -18 19 -29 8z m119 -67 c15 -61 -16 -114 -53 -90 -22
13 -29 79 -12 100 19 23 58 18 65 -10z"/>
<path d="M1523 768 c-13 -6 -23 -20 -23 -30 0 -16 4 -18 23 -12 12 5 36 8 52
9 24 0 31 -5 33 -22 3 -20 -1 -23 -31 -23 -64 0 -103 -51 -77 -100 12 -23 62
-35 89 -20 14 7 27 7 39 1 35 -19 44 1 40 89 -3 72 -6 84 -27 101 -26 21 -82
24 -118 7z m87 -133 c0 -18 -7 -26 -24 -31 -43 -11 -65 24 -28 45 31 19 52 13
52 -14z"/>
<path d="M1763 768 c-50 -24 -66 -117 -29 -173 32 -48 136 -39 136 12 0 20 -3
22 -19 13 -29 -15 -68 -12 -75 6 -11 30 -6 83 10 99 16 16 28 16 67 0 13 -5
17 -2 17 14 0 36 -59 52 -107 29z"/>
<path d="M2169 751 c-25 -25 -29 -37 -29 -84 0 -49 3 -58 31 -81 31 -27 53
-31 108 -20 21 5 31 12 31 25 0 16 -6 18 -43 13 -33 -5 -47 -2 -60 11 -34 33
-22 45 48 45 l65 0 0 35 c0 80 -92 114 -151 56z m99 -38 c3 -21 -1 -23 -37
-23 -27 0 -41 4 -41 13 0 41 72 50 78 10z"/>
<path d="M2692 755 c-29 -24 -32 -32 -32 -82 0 -30 4 -62 10 -72 15 -29 64
-44 115 -37 36 6 45 11 45 27 0 19 -4 20 -39 14 -47 -8 -81 7 -81 35 0 18 7
20 65 20 l65 0 0 34 c0 47 -27 76 -76 83 -33 4 -45 1 -72 -22z m86 -27 c24
-24 13 -38 -28 -38 -26 0 -40 5 -40 13 0 18 21 37 40 37 9 0 21 -5 28 -12z"/>
<path d="M2897 773 c-4 -3 -7 -69 -7 -145 l0 -138 25 0 c23 0 25 3 25 51 0 50
0 50 22 35 31 -22 52 -20 84 7 20 18 28 35 31 73 9 95 -41 145 -112 111 -29
-14 -34 -14 -39 -1 -6 15 -18 18 -29 7z m127 -76 c9 -38 -7 -82 -33 -85 -33
-5 -51 16 -51 59 0 66 68 88 84 26z"/>
<path d="M3128 778 c-4 -7 -6 -246 -2 -265 3 -17 11 -23 29 -23 23 0 25 4 25
45 0 49 1 51 30 33 30 -19 72 1 94 45 46 95 -34 208 -108 152 -16 -12 -20 -12
-33 1 -13 12 -30 18 -35 12z m128 -72 c15 -61 -16 -114 -53 -90 -22 13 -29 79
-12 100 19 23 58 18 65 -10z"/>
<path d="M3403 770 c-51 -21 -70 -125 -33 -173 12 -15 36 -29 54 -32 44 -9
100 7 104 29 3 15 -2 16 -45 10 -50 -6 -67 2 -75 36 -2 12 11 16 62 20 62 5
65 6 68 33 2 20 -5 35 -27 57 -30 31 -65 37 -108 20z m75 -42 c24 -24 13 -38
-28 -38 -32 0 -40 4 -40 18 0 10 3 22 7 25 11 11 48 8 61 -5z"/>
<path d="M3718 773 c-13 -3 -17 -19 -20 -81 -4 -109 -1 -122 28 -122 24 0 24
1 24 99 0 55 -3 102 -7 104 -5 2 -16 2 -25 0z"/>
<path d="M3810 675 l0 -105 25 0 c24 0 25 2 25 68 0 72 10 92 46 92 26 0 34
-23 34 -102 0 -55 1 -58 25 -58 25 0 25 1 25 79 0 64 -4 83 -21 105 -23 30
-58 34 -93 11 -21 -14 -24 -14 -29 0 -4 8 -13 15 -22 15 -12 0 -15 -17 -15
-105z"/>
<path d="M1197 3 c662 -2 1744 -2 2405 0 662 1 121 2 -1202 2 -1323 0 -1864
-1 -1203 -2z"/>
</g>
</svg>
